<svg width="26" height="17" viewBox="0 0 26 17" fill="none" xmlns="http://www.w3.org/2000/svg">
<rect width="26" height="17" rx="3" fill="#0072FC"/>
<path d="M7.35227 11.3636V10.9034C7.35227 10.5852 7.41761 10.294 7.5483 10.0298C7.68182 9.76278 7.875 9.54972 8.12784 9.39062C8.38352 9.22869 8.69318 9.14773 9.05682 9.14773C9.42614 9.14773 9.7358 9.22869 9.9858 9.39062C10.2358 9.54972 10.4247 9.76278 10.5526 10.0298C10.6804 10.294 10.7443 10.5852 10.7443 10.9034V11.3636C10.7443 11.6818 10.679 11.9744 10.5483 12.2415C10.4205 12.5057 10.2301 12.7187 9.97727 12.8807C9.72727 13.0398 9.42045 13.1193 9.05682 13.1193C8.6875 13.1193 8.37642 13.0398 8.12358 12.8807C7.87074 12.7187 7.67898 12.5057 7.5483 12.2415C7.41761 11.9744 7.35227 11.6818 7.35227 11.3636ZM8.22159 10.9034V11.3636C8.22159 11.6278 8.28409 11.8651 8.40909 12.0753C8.53409 12.2827 8.75 12.3864 9.05682 12.3864C9.35511 12.3864 9.56534 12.2827 9.6875 12.0753C9.8125 11.8651 9.875 11.6278 9.875 11.3636V10.9034C9.875 10.6392 9.81534 10.4034 9.69602 10.196C9.5767 9.9858 9.36364 9.88068 9.05682 9.88068C8.75852 9.88068 8.54403 9.9858 8.41335 10.196C8.28551 10.4034 8.22159 10.6392 8.22159 10.9034ZM3.00568 6.36932V5.90909C3.00568 5.59091 3.07102 5.29972 3.2017 5.03551C3.33523 4.76847 3.52841 4.5554 3.78125 4.39631C4.03693 4.23437 4.34659 4.15341 4.71023 4.15341C5.07955 4.15341 5.3892 4.23437 5.6392 4.39631C5.8892 4.5554 6.07813 4.76847 6.20597 5.03551C6.33381 5.29972 6.39773 5.59091 6.39773 5.90909V6.36932C6.39773 6.6875 6.33239 6.98011 6.2017 7.24716C6.07386 7.51136 5.88352 7.72443 5.63068 7.88636C5.38068 8.04545 5.07386 8.125 4.71023 8.125C4.34091 8.125 4.02983 8.04545 3.77699 7.88636C3.52415 7.72443 3.33239 7.51136 3.2017 7.24716C3.07102 6.98011 3.00568 6.6875 3.00568 6.36932ZM3.875 5.90909V6.36932C3.875 6.63352 3.9375 6.87074 4.0625 7.08097C4.1875 7.28835 4.40341 7.39205 4.71023 7.39205C5.00852 7.39205 5.21875 7.28835 5.34091 7.08097C5.46591 6.87074 5.52841 6.63352 5.52841 6.36932V5.90909C5.52841 5.64489 5.46875 5.40909 5.34943 5.2017C5.23011 4.99148 5.01705 4.88636 4.71023 4.88636C4.41193 4.88636 4.19744 4.99148 4.06676 5.2017C3.93892 5.40909 3.875 5.64489 3.875 5.90909ZM3.32955 13L9.32955 4.27273H10.3011L4.30114 13H3.32955ZM17.6989 14.0227C16.8295 14.0227 16.0611 13.9034 15.3935 13.6648C14.7259 13.429 14.1648 13.081 13.7102 12.6207C13.2557 12.1605 12.9119 11.5966 12.679 10.929C12.446 10.2614 12.3295 9.49716 12.3295 8.63636C12.3295 7.80398 12.4474 7.05966 12.6832 6.40341C12.9219 5.74716 13.267 5.19034 13.7188 4.73295C14.1733 4.27273 14.7244 3.92187 15.3722 3.6804C16.0227 3.43892 16.7585 3.31818 17.5795 3.31818C18.3778 3.31818 19.0767 3.44886 19.6761 3.71023C20.2784 3.96875 20.7813 4.3196 21.1847 4.76278C21.5909 5.20312 21.8949 5.69886 22.0966 6.25C22.3011 6.80114 22.4034 7.36932 22.4034 7.95455C22.4034 8.36648 22.3835 8.78409 22.3438 9.20739C22.304 9.63068 22.2202 10.0199 22.0923 10.375C21.9645 10.7273 21.767 11.0114 21.5 11.2273C21.2358 11.4432 20.8778 11.5511 20.4261 11.5511C20.2273 11.5511 20.0085 11.5199 19.7699 11.4574C19.5312 11.3949 19.3196 11.2912 19.1349 11.1463C18.9503 11.0014 18.8409 10.8068 18.8068 10.5625H18.7557C18.6875 10.7273 18.5824 10.8835 18.4403 11.0312C18.3011 11.179 18.1179 11.2969 17.8906 11.3849C17.6662 11.473 17.392 11.5114 17.0682 11.5C16.6989 11.4858 16.3736 11.4034 16.0923 11.2528C15.8111 11.0994 15.5753 10.892 15.3849 10.6307C15.1974 10.3665 15.0554 10.0611 14.9588 9.71449C14.8651 9.36506 14.8182 8.98864 14.8182 8.58523C14.8182 8.2017 14.875 7.85085 14.9886 7.53267C15.1023 7.21449 15.2599 6.93608 15.4616 6.69744C15.6662 6.45881 15.9048 6.26847 16.1776 6.12642C16.4531 5.98153 16.75 5.89205 17.0682 5.85795C17.3523 5.82955 17.6108 5.84233 17.8438 5.89631C18.0767 5.94744 18.2685 6.02557 18.419 6.13068C18.5696 6.23295 18.6648 6.34659 18.7045 6.47159H18.7557V5.99432H19.6591V9.84659C19.6591 10.0852 19.7259 10.2955 19.8594 10.4773C19.9929 10.6591 20.1875 10.75 20.4432 10.75C20.733 10.75 20.9545 10.6506 21.108 10.4517C21.2642 10.2528 21.3707 9.94602 21.4276 9.53125C21.4872 9.11648 21.517 8.58523 21.517 7.9375C21.517 7.55682 21.4645 7.18182 21.3594 6.8125C21.2571 6.44034 21.1009 6.09233 20.8906 5.76847C20.6832 5.4446 20.4205 5.15909 20.1023 4.91193C19.7841 4.66477 19.4105 4.47159 18.9815 4.33239C18.5554 4.19034 18.071 4.11932 17.5284 4.11932C16.8608 4.11932 16.2628 4.22301 15.7344 4.4304C15.2088 4.63494 14.7614 4.93466 14.392 5.32955C14.0256 5.72159 13.7457 6.19886 13.5526 6.76136C13.3622 7.32102 13.267 7.95739 13.267 8.67045C13.267 9.39489 13.3622 10.0384 13.5526 10.6009C13.7457 11.1634 14.0298 11.6378 14.4048 12.0241C14.7827 12.4105 15.25 12.7045 15.8068 12.9062C16.3636 13.1051 17.0057 13.2045 17.733 13.2045C18.0455 13.2045 18.3537 13.1747 18.6577 13.1151C18.9616 13.0554 19.2301 12.9901 19.4631 12.919C19.696 12.848 19.8636 12.7955 19.9659 12.7614L20.2045 13.5455C20.0284 13.6193 19.7983 13.6932 19.5142 13.767C19.233 13.8409 18.9318 13.902 18.6108 13.9503C18.2926 13.9986 17.9886 14.0227 17.6989 14.0227ZM17.2045 10.6307C17.5852 10.6307 17.8935 10.554 18.1293 10.4006C18.3651 10.2472 18.5369 10.0156 18.6449 9.70597C18.7528 9.39631 18.8068 9.00568 18.8068 8.53409C18.8068 8.05682 18.7472 7.68466 18.6278 7.41761C18.5085 7.15057 18.3324 6.96307 18.0994 6.85511C17.8665 6.74716 17.5795 6.69318 17.2386 6.69318C16.9148 6.69318 16.6378 6.77841 16.4077 6.94886C16.1804 7.11648 16.0057 7.34091 15.8835 7.62216C15.7642 7.90057 15.7045 8.20455 15.7045 8.53409C15.7045 8.89773 15.7528 9.24006 15.8494 9.56108C15.946 9.87926 16.1037 10.1378 16.3224 10.3366C16.5412 10.5327 16.8352 10.6307 17.2045 10.6307Z" fill="white"/>
</svg>
